<svg width="289" height="100" viewBox="0 0 289 100" fill="none" xmlns="http://www.w3.org/2000/svg">
<g opacity="0.6">
<path d="M137.689 99.9412L99.617 41.4716H152.257C152.257 41.4716 159.447 38.7519 159.447 31.9526C159.447 25.1534 151.967 23.7936 151.967 23.7936H87.1592L71.7402 0H156.043C156.043 0 182.556 4.75946 182.556 33.3125C182.556 61.8655 153.323 64.5852 153.323 64.5852H143.125L165.417 99.9375H137.689V99.9412Z" fill="#22A9E1"/>
<path d="M137.689 99.9412L99.617 41.4716H152.257C152.257 41.4716 159.447 38.7519 159.447 31.9526C159.447 25.1534 151.967 23.7936 151.967 23.7936H87.1592L71.7402 0H156.043C156.043 0 182.556 4.75946 182.556 33.3125C182.556 61.8655 153.323 64.5852 153.323 64.5852H143.125L165.417 99.9375H137.689V99.9412Z" fill="url(#paint0_linear_1041_8158)"/>
<path d="M0.5 99.9412L66.2593 0.0817871L132.323 99.9412H104.316L66.2593 38.7482L28.5106 99.9412H0.5Z" fill="#22A9E1"/>
<path d="M0.5 99.9412L66.2593 0.0817871L132.323 99.9412H104.316L66.2593 38.7482L28.5106 99.9412H0.5Z" fill="url(#paint1_linear_1041_8158)"/>
<path d="M257.924 40.0376C262.226 40.0376 265.596 40.9032 268.041 42.6384C270.485 44.3735 272.217 46.8628 273.238 50.1101C274.26 53.3573 274.769 57.2065 274.769 61.6688V75.4938C274.769 80.0044 274.19 84.0913 273.027 87.7585C271.868 91.4256 269.995 94.3496 267.409 96.5306C264.823 98.7115 261.383 99.8001 257.08 99.8001H234.338H228.676H203.333C199.681 99.8001 196.47 98.9084 193.702 97.125C190.934 95.3416 188.776 93.1384 187.226 90.5116C185.677 87.8848 184.904 85.2617 184.904 82.6312H228.672H234.334H257.589V57.2102H203.154C198.852 57.2102 195.478 56.3445 193.037 54.6094C190.593 52.8743 188.861 50.3999 187.839 47.1749C186.818 43.9536 186.309 40.1156 186.309 35.6534V24.8749C186.309 20.4164 186.888 16.3406 188.051 12.6474C189.21 8.95803 191.09 6.01913 193.691 3.83818C196.292 1.65722 199.725 0.568604 203.994 0.568604H223.861H232.447H254.866C258.548 0.568604 261.765 1.46031 264.518 3.24371C267.272 5.02711 269.423 7.23407 270.972 9.85716C272.518 12.484 273.294 15.1108 273.294 17.7376H232.443H223.857H203.481V40.0376H257.924Z" fill="#22A9E1"/>
<path d="M257.924 40.0376C262.226 40.0376 265.596 40.9032 268.041 42.6384C270.485 44.3735 272.217 46.8628 273.238 50.1101C274.26 53.3573 274.769 57.2065 274.769 61.6688V75.4938C274.769 80.0044 274.19 84.0913 273.027 87.7585C271.868 91.4256 269.995 94.3496 267.409 96.5306C264.823 98.7115 261.383 99.8001 257.08 99.8001H234.338H228.676H203.333C199.681 99.8001 196.47 98.9084 193.702 97.125C190.934 95.3416 188.776 93.1384 187.226 90.5116C185.677 87.8848 184.904 85.2617 184.904 82.6312H228.672H234.334H257.589V57.2102H203.154C198.852 57.2102 195.478 56.3445 193.037 54.6094C190.593 52.8743 188.861 50.3999 187.839 47.1749C186.818 43.9536 186.309 40.1156 186.309 35.6534V24.8749C186.309 20.4164 186.888 16.3406 188.051 12.6474C189.21 8.95803 191.09 6.01913 193.691 3.83818C196.292 1.65722 199.725 0.568604 203.994 0.568604H223.861H232.447H254.866C258.548 0.568604 261.765 1.46031 264.518 3.24371C267.272 5.02711 269.423 7.23407 270.972 9.85716C272.518 12.484 273.294 15.1108 273.294 17.7376H232.443H223.857H203.481V40.0376H257.924Z" fill="url(#paint2_linear_1041_8158)"/>
</g>
<defs>
<linearGradient id="paint0_linear_1041_8158" x1="121.702" y1="72.3655" x2="121.702" y2="100.052" gradientUnits="userSpaceOnUse">
<stop stop-color="#22A9E1" stop-opacity="0.55"/>
<stop offset="1" stop-color="#22A9E1" stop-opacity="0.55"/>
</linearGradient>
<linearGradient id="paint1_linear_1041_8158" x1="59.9331" y1="72.3881" x2="59.9331" y2="100.052" gradientUnits="userSpaceOnUse">
<stop stop-color="#22A9E1" stop-opacity="0.55"/>
<stop offset="1" stop-color="#22A9E1" stop-opacity="0.55"/>
</linearGradient>
<linearGradient id="paint2_linear_1041_8158" x1="225.42" y1="72.4203" x2="225.42" y2="99.9101" gradientUnits="userSpaceOnUse">
<stop stop-color="#22A9E1" stop-opacity="0.55"/>
<stop offset="1" stop-color="#22A9E1" stop-opacity="0.55"/>
</linearGradient>
</defs>
</svg>
