<svg width="1344" height="467" viewBox="0 0 1344 467" fill="none" xmlns="http://www.w3.org/2000/svg">
<g opacity="0.2">
<path d="M640.212 466.392L462.543 193.534H708.197C708.197 193.534 741.747 180.842 741.747 149.112C741.747 117.383 706.844 111.037 706.844 111.037H404.407L332.451 0H725.865C725.865 0 849.594 22.2108 849.594 155.458C849.594 288.706 713.173 301.398 713.173 301.398H665.578L769.61 466.375H640.212V466.392Z" fill="#22A9E1"/>
<path d="M640.212 466.392L462.543 193.534H708.197C708.197 193.534 741.747 180.842 741.747 149.112C741.747 117.383 706.844 111.037 706.844 111.037H404.407L332.451 0H725.865C725.865 0 849.594 22.2108 849.594 155.458C849.594 288.706 713.173 301.398 713.173 301.398H665.578L769.61 466.375H640.212V466.392Z" fill="url(#paint0_linear_549_11208)"/>
<path d="M0 466.392L306.877 0.381348L615.175 466.392H484.476L306.877 180.825L130.716 466.392H0Z" fill="#22A9E1"/>
<path d="M0 466.392L306.877 0.381348L615.175 466.392H484.476L306.877 180.825L130.716 466.392H0Z" fill="url(#paint1_linear_549_11208)"/>
<path d="M1201.31 186.841C1221.39 186.841 1237.11 190.881 1248.52 198.978C1259.93 207.075 1268.01 218.692 1272.78 233.846C1277.55 249 1279.92 266.963 1279.92 287.787V352.304C1279.92 373.353 1277.22 392.426 1271.79 409.539C1266.38 426.652 1257.64 440.298 1245.58 450.475C1233.51 460.653 1217.45 465.733 1197.37 465.733H1091.24H1064.82H946.554C929.51 465.733 914.529 461.572 901.612 453.25C888.695 444.927 878.621 434.645 871.391 422.387C864.161 410.128 860.554 397.887 860.554 385.611H1064.8H1091.23H1199.75V266.98H945.722C925.643 266.98 909.9 262.941 898.509 254.843C887.1 246.746 879.02 235.199 874.252 220.149C869.484 205.116 867.108 187.205 867.108 166.382V116.082C867.108 95.2759 869.813 76.2554 875.24 59.0208C880.65 41.8035 889.423 28.0886 901.56 17.9108C913.697 7.73306 929.718 2.65283 949.64 2.65283H1042.35H1082.42H1187.04C1204.22 2.65283 1219.24 6.81411 1232.09 15.1367C1244.93 23.4592 1254.97 33.7584 1262.2 45.9994C1269.42 58.2579 1273.04 70.5163 1273.04 82.7747H1082.4H1042.33H947.247V186.841H1201.31Z" fill="#22A9E1"/>
<path d="M1201.31 186.841C1221.39 186.841 1237.11 190.881 1248.52 198.978C1259.93 207.075 1268.01 218.692 1272.78 233.846C1277.55 249 1279.92 266.963 1279.92 287.787V352.304C1279.92 373.353 1277.22 392.426 1271.79 409.539C1266.38 426.652 1257.64 440.298 1245.58 450.475C1233.51 460.653 1217.45 465.733 1197.37 465.733H1091.24H1064.82H946.554C929.51 465.733 914.529 461.572 901.612 453.25C888.695 444.927 878.621 434.645 871.391 422.387C864.161 410.128 860.554 397.887 860.554 385.611H1064.8H1091.23H1199.75V266.98H945.722C925.643 266.98 909.9 262.941 898.509 254.843C887.1 246.746 879.02 235.199 874.252 220.149C869.484 205.116 867.108 187.205 867.108 166.382V116.082C867.108 95.2759 869.813 76.2554 875.24 59.0208C880.65 41.8035 889.423 28.0886 901.56 17.9108C913.697 7.73306 929.718 2.65283 949.64 2.65283H1042.35H1082.42H1187.04C1204.22 2.65283 1219.24 6.81411 1232.09 15.1367C1244.93 23.4592 1254.97 33.7584 1262.2 45.9994C1269.42 58.2579 1273.04 70.5163 1273.04 82.7747H1082.4H1042.33H947.247V186.841H1201.31Z" fill="url(#paint2_linear_549_11208)"/>
</g>
<defs>
<linearGradient id="paint0_linear_549_11208" x1="565.607" y1="337.706" x2="565.607" y2="466.909" gradientUnits="userSpaceOnUse">
<stop stop-color="#D7EFF9" stop-opacity="0"/>
<stop offset="0.44" stop-color="#D7EFF9"/>
</linearGradient>
<linearGradient id="paint1_linear_549_11208" x1="277.355" y1="337.811" x2="277.354" y2="466.908" gradientUnits="userSpaceOnUse">
<stop stop-color="#D7EFF9" stop-opacity="0"/>
<stop offset="0.44" stop-color="#D7EFF9"/>
</linearGradient>
<linearGradient id="paint2_linear_549_11208" x1="1049.63" y1="337.961" x2="1049.63" y2="466.246" gradientUnits="userSpaceOnUse">
<stop stop-color="#D7EFF9" stop-opacity="0"/>
<stop offset="0.44" stop-color="#D7EFF9"/>
</linearGradient>
</defs>
</svg>
