<svg width="65" height="57" viewBox="0 0 65 57" fill="none" xmlns="http://www.w3.org/2000/svg">
<g id="Frame 811403">
<path id="Vector" d="M32.5003 32.4365L23.4219 36.7549L32.5003 41.0668L41.5787 36.7549L32.5003 32.4365Z" fill="black"/>
<path id="Vector_2" d="M10.6244 32.4365L1.54688 36.7549L10.6244 41.0668L19.7019 36.7549L10.6244 32.4365Z" fill="black"/>
<g id="Clip path group">
<mask id="mask0_105_497" style="mask-type:luminance" maskUnits="userSpaceOnUse" x="22" y="37" width="10" height="20">
<g id="498ed149ef">
<path id="Vector_3" d="M22.2969 37.834H31.7597V56.5167H22.2969V37.834Z" fill="white"/>
</g>
</mask>
<g mask="url(#mask0_105_497)">
<g id="Group">
<path id="Vector_4" d="M22.3625 51.7019L31.6997 56.5544V42.4553L22.3625 38.0205V51.7019Z" fill="black"/>
</g>
</g>
</g>
<g id="Clip path group_2">
<mask id="mask1_105_497" style="mask-type:luminance" maskUnits="userSpaceOnUse" x="11" y="37" width="10" height="20">
<g id="dd9f94ef8c">
<path id="Vector_5" d="M11.4148 37.834H20.8777V56.5167H11.4148V37.834Z" fill="white"/>
</g>
</mask>
<g mask="url(#mask1_105_497)">
<g id="Group_2">
<path id="Vector_6" d="M11.4253 56.5544L20.7625 51.7019V38.0205L11.4253 42.4553V56.5544Z" fill="black"/>
</g>
</g>
</g>
<path id="Vector_7" d="M14.9368 24.8942L24.2749 20.0427V6.36035L14.9368 10.7951V24.8942Z" fill="black"/>
<g id="Clip path group_3">
<mask id="mask2_105_497" style="mask-type:luminance" maskUnits="userSpaceOnUse" x="5" y="0" width="19" height="10">
<g id="1eaad1656c">
<path id="Vector_8" d="M5.02661 0.736328H23.2426V9.44512H5.02661V0.736328Z" fill="white"/>
</g>
</mask>
<g mask="url(#mask2_105_497)">
<g id="Group_3">
<path id="Vector_9" d="M23.2159 5.09662L14.1375 0.777344L5.05908 5.09662L14.1375 9.40851L23.2159 5.09662Z" fill="black"/>
</g>
</g>
</g>
<path id="Vector_10" d="M13.3379 10.7951L4.00073 6.36035V20.0427L13.3379 24.8942V10.7951Z" fill="black"/>
<g id="Clip path group_4">
<mask id="mask3_105_497" style="mask-type:luminance" maskUnits="userSpaceOnUse" x="0" y="37" width="10" height="20">
<g id="a26cb6c64f">
<path id="Vector_11" d="M0.5 37.834H9.9952V56.5167H0.5V37.834Z" fill="white"/>
</g>
</mask>
<g mask="url(#mask3_105_497)">
<g id="Group_4">
<path id="Vector_12" d="M0.487061 51.7019L9.82517 56.5544V42.4553L0.487061 38.0205V51.7019Z" fill="black"/>
</g>
</g>
</g>
<path id="Vector_13" d="M33.3 30.5886L42.6372 35.4402V21.3411L33.3 16.9072V30.5886Z" fill="black"/>
<path id="Vector_14" d="M54.3756 32.4365L45.2981 36.7549L54.3756 41.0668L63.4531 36.7549L54.3756 32.4365Z" fill="black"/>
<g id="Clip path group_5">
<mask id="mask4_105_497" style="mask-type:luminance" maskUnits="userSpaceOnUse" x="54" y="37" width="11" height="20">
<g id="666168bda2">
<path id="Vector_15" d="M54.9434 37.834H64.4996V56.5167H54.9434V37.834Z" fill="white"/>
</g>
</mask>
<g mask="url(#mask4_105_497)">
<g id="Group_5">
<path id="Vector_16" d="M55.175 42.4553V56.5544L64.5122 51.7019V38.0205L55.175 42.4553Z" fill="black"/>
</g>
</g>
</g>
<path id="Vector_17" d="M44.2383 21.3411V35.4402L53.5755 30.5886V16.9072L49.8873 18.6584L44.2383 21.3411Z" fill="black"/>
<g id="Clip path group_6">
<mask id="mask5_105_497" style="mask-type:luminance" maskUnits="userSpaceOnUse" x="33" y="37" width="10" height="20">
<g id="00a4795e81">
<path id="Vector_18" d="M33.179 37.834H42.6418V56.5167H33.179V37.834Z" fill="white"/>
</g>
</mask>
<g mask="url(#mask5_105_497)">
<g id="Group_6">
<path id="Vector_19" d="M33.2998 42.4553V56.5544L42.637 51.7019V38.0205L40.628 38.9751L33.2998 42.4553Z" fill="black"/>
</g>
</g>
</g>
<g id="Clip path group_7">
<mask id="mask6_105_497" style="mask-type:luminance" maskUnits="userSpaceOnUse" x="44" y="37" width="10" height="20">
<g id="2ab830bd77">
<path id="Vector_20" d="M44.0613 37.834H53.7607V56.5167H44.0613V37.834Z" fill="white"/>
</g>
</mask>
<g mask="url(#mask6_105_497)">
<g id="Group_7">
<path id="Vector_21" d="M44.2385 51.7019L53.5757 56.5544V42.4553L44.2385 38.0205V51.7019Z" fill="black"/>
</g>
</g>
</g>
<path id="Vector_22" d="M43.4378 11.3242L34.3594 15.6426L43.4378 19.9554L52.5162 15.6426L43.4378 11.3242Z" fill="black"/>
<path id="Vector_23" d="M25.8758 31.4911C26.2279 31.4911 26.5477 31.2582 26.6456 30.907L27.8008 26.768C27.919 26.3438 27.6705 25.9039 27.2444 25.7856C26.8203 25.6674 26.3785 25.9159 26.2603 26.3401L25.5256 28.972L23.1876 25.0519C22.9621 24.673 22.4705 24.5492 22.0907 24.7747C21.7109 24.9992 21.5871 25.4899 21.8125 25.8679L23.962 29.471L21.7284 28.9969C21.2997 28.9054 20.8718 29.1808 20.7803 29.6114C20.6879 30.043 20.9633 30.4662 21.3958 30.5587L25.7095 31.4735C25.7649 31.4855 25.8204 31.4911 25.8758 31.4911Z" fill="black"/>
</g>
</svg>
