<svg width="65" height="61" viewBox="0 0 65 61" fill="none" xmlns="http://www.w3.org/2000/svg">
<g id="Frame 811404">
<path id="Vector" d="M28.8412 41.6291C27.9402 41.6291 27.0476 41.2455 26.4288 40.5076L15.8006 27.8495C14.6885 26.5262 14.8662 24.557 16.1999 23.4511C17.5316 22.3463 19.5123 22.5229 20.6245 23.8483L29.344 34.2329L59.4756 11.8404C60.8658 10.8077 62.8351 11.0909 63.8741 12.4728C64.9141 13.8535 64.6287 15.8113 63.2385 16.8451L30.7217 41.0072C30.1593 41.4274 29.4977 41.6291 28.8412 41.6291Z" fill="black"/>
<path id="Vector_2" d="M35.4419 8.24519L32.2214 10.8071C37.6871 11.6339 42.4984 14.4707 45.8652 18.5326L51.0225 14.6986C50.3828 13.9094 49.7002 13.1548 48.9811 12.4367C47.6965 11.1594 46.2833 10.0012 44.7812 8.99046C43.2625 7.97133 41.6392 7.09645 39.9574 6.38777C37.57 5.38432 35.0802 4.71849 32.5246 4.39551L35.4941 7.65357C35.6478 7.83022 35.6248 8.09885 35.4419 8.24519Z" fill="black"/>
<g id="Clip path group">
<mask id="mask0_105_555" style="mask-type:luminance" maskUnits="userSpaceOnUse" x="0" y="0" width="58" height="61">
<g id="a1cf8ed223">
<path id="Vector_3" d="M0.499756 0.189453H57.346V60.6262H0.499756V0.189453Z" fill="white"/>
</g>
</mask>
<g mask="url(#mask0_105_555)">
<g id="Group">
<path id="Vector_4" d="M50.6907 29.5882C50.8098 30.5101 50.8725 31.4487 50.8725 32.3999C50.8725 44.4454 41.0147 54.2426 28.9012 54.2426C16.7878 54.2426 6.93098 44.4433 6.93098 32.3999C6.93098 22.0853 14.16 13.4191 23.8443 11.1415V13.9992C23.8443 14.3546 24.2718 14.5386 24.5331 14.295L31.6294 7.65973C31.8008 7.4998 31.8008 7.22804 31.6294 7.06811L24.5331 0.43387C24.2718 0.18928 23.8443 0.373245 23.8443 0.728632V4.61594C21.7914 4.98283 19.7876 5.57444 17.8487 6.38974C16.1637 7.09842 14.5405 7.97331 13.0248 8.99348C11.5228 10.0032 10.1096 11.1624 8.82499 12.4386C7.54037 13.7159 6.37491 15.1208 5.35892 16.6144C4.33352 18.1238 3.45237 19.7377 2.74055 21.4101C1.25942 24.8929 0.506836 28.5899 0.506836 32.3978C0.506836 36.2067 1.25942 39.9059 2.74055 43.3866C3.45237 45.0611 4.33352 46.675 5.35892 48.1812C6.37491 49.6749 7.54037 51.0797 8.82499 52.357C10.1096 53.6343 11.5228 54.7924 13.0248 55.8032C14.5436 56.8223 16.1669 57.6982 17.8487 58.4059C21.3524 59.8787 25.0704 60.626 28.9012 60.626C32.7342 60.626 36.4532 59.8787 39.9548 58.4059C41.6387 57.6982 43.262 56.8223 44.7787 55.8032C46.2797 54.7924 47.6929 53.6343 48.9785 52.357C50.2631 51.0797 51.4286 49.6749 52.4446 48.1812C53.47 46.6718 54.3501 45.058 55.063 43.3866C56.5441 39.9028 57.2956 36.2067 57.2956 32.3978C57.2956 29.9927 56.9967 27.6304 56.4009 25.3413L50.6907 29.5882Z" fill="black"/>
</g>
</g>
</g>
<path id="Vector_5" d="M28.8412 41.6291C27.9402 41.6291 27.0476 41.2455 26.4288 40.5076L15.8006 27.8495C14.6885 26.5262 14.8662 24.557 16.1999 23.4511C17.5316 22.3463 19.5123 22.5229 20.6245 23.8483L29.344 34.2329L59.4756 11.8404C60.8658 10.8077 62.8351 11.0909 63.8741 12.4728C64.9141 13.8535 64.6287 15.8113 63.2385 16.8451L30.7217 41.0072C30.1593 41.4274 29.4977 41.6291 28.8412 41.6291Z" fill="black"/>
</g>
</svg>
