<svg width="65" height="65" viewBox="0 0 65 65" fill="none" xmlns="http://www.w3.org/2000/svg">
<g id="Frame 811405">
<g id="Clip path group">
<mask id="mask0_105_545" style="mask-type:luminance" maskUnits="userSpaceOnUse" x="0" y="0" width="65" height="65">
<g id="6eeef3ec12">
<path id="Vector" d="M0.499512 0.625977H64.4995V64.626H0.499512V0.625977Z" fill="white"/>
</g>
</mask>
<g mask="url(#mask0_105_545)">
<g id="Group">
<path id="Vector_2" fill-rule="evenodd" clip-rule="evenodd" d="M53.1492 37.3158C52.6306 37.0814 52.3982 36.4701 52.6326 35.9505C52.867 35.4309 53.4793 35.1995 53.9979 35.4339C54.3789 35.6054 54.7529 35.7949 55.1179 36.0004L57.1125 35.1128C57.5034 34.9392 57.9602 35.024 58.2624 35.3262L61.1845 38.2483C61.4857 38.5495 61.5704 39.0062 61.3979 39.3962L60.5143 41.3918C61.0678 42.3751 61.5006 43.4193 61.8038 44.5074L63.8383 45.2902C64.2372 45.4438 64.4995 45.8268 64.4995 46.2536V50.3865C64.4995 50.8143 64.2372 51.1973 63.8383 51.3499L61.8028 52.1337C61.4996 53.2178 61.0648 54.261 60.5133 55.2433L61.3979 57.2399C61.5704 57.6299 61.4857 58.0867 61.1845 58.3878L58.2624 61.3099C57.9602 61.6121 57.5044 61.6969 57.1145 61.5234L55.1189 60.6398C54.1385 61.1933 53.0924 61.6261 52.0073 61.9293L51.2244 63.9638C51.0708 64.3627 50.6879 64.626 50.261 64.626H46.1282C45.7003 64.626 45.3174 64.3627 45.1648 63.9638L44.3809 61.9293C43.2938 61.6261 42.2497 61.1913 41.2673 60.6398L39.2707 61.5234C38.8798 61.6969 38.424 61.6121 38.1218 61.3099L35.2007 58.3878C34.8985 58.0857 34.8138 57.6289 34.9873 57.2389L35.5129 56.0571C35.7442 55.5365 36.3546 55.3012 36.8752 55.5326C37.3958 55.7639 37.6301 56.3753 37.3988 56.8959L37.1614 57.4294L39.0812 59.3492L40.9143 58.5374C41.2254 58.3998 41.5825 58.4237 41.8717 58.6013C42.9607 59.2685 44.1455 59.7631 45.3922 60.0583C45.7233 60.1371 45.9945 60.3745 46.1172 60.6916L46.8363 62.5616H49.5519L50.271 60.6916C50.3936 60.3745 50.6649 60.1371 50.996 60.0583C52.2367 59.7641 53.4245 59.2734 54.5085 58.6033C54.7987 58.4237 55.1578 58.3998 55.4699 58.5374L57.303 59.3492L59.2238 57.4284L58.411 55.5954C58.2743 55.2852 58.2983 54.9272 58.4748 54.638C59.142 53.5489 59.6377 52.3641 59.9329 51.1225C60.0116 50.7904 60.248 50.5201 60.5661 50.3974L62.4351 49.6784V46.9627L60.5661 46.2427C60.248 46.121 60.0107 45.8497 59.9329 45.5176C59.6377 44.272 59.147 43.0882 58.4768 42.0001C58.2983 41.7109 58.2733 41.3519 58.411 41.0407L59.2238 39.2077L57.304 37.2879L55.4709 38.1027C55.1598 38.2413 54.7997 38.2164 54.5095 38.0378C54.0707 37.7676 53.6169 37.5262 53.1492 37.3158ZM42.3633 54.1483C41.9614 53.7454 41.9614 53.0912 42.3643 52.6882C42.7673 52.2853 43.4215 52.2863 43.8244 52.6892C44.9414 53.8072 46.4862 54.4994 48.1916 54.4994C51.6054 54.4994 54.3729 51.7318 54.3729 48.3181C54.3729 46.4182 53.5142 44.7188 52.1649 43.5859C51.728 43.2198 51.6712 42.5676 52.0382 42.1318C52.4042 41.695 53.0555 41.6381 53.4923 42.0041C55.2924 43.516 56.4373 45.7829 56.4373 48.3181C56.4373 52.8718 52.7453 56.5638 48.1916 56.5638C45.9157 56.5638 43.8553 55.6403 42.3633 54.1483ZM11.2534 27.6489C11.7591 27.9112 11.9565 28.5345 11.6943 29.0402C11.432 29.5458 10.8086 29.7443 10.303 29.482C10.1614 29.4082 10.0208 29.3324 9.88215 29.2546L7.88555 30.1392C7.4946 30.3117 7.03884 30.227 6.73765 29.9248L3.81555 27.0027C3.51337 26.7005 3.42859 26.2437 3.60213 25.8538L4.48873 23.8592C3.93523 22.8788 3.50339 21.8337 3.19722 20.7486L1.16072 19.9647C0.7628 19.8121 0.499512 19.4291 0.499512 19.0013V14.8685C0.499512 14.4416 0.7628 14.0587 1.16072 13.9051L3.19722 13.1212C3.50239 12.0341 3.93523 10.99 4.48873 10.0076L3.60213 8.01301C3.42859 7.62207 3.51337 7.1653 3.81555 6.86312L6.73765 3.94102C7.03884 3.63883 7.4966 3.55406 7.88654 3.72759C7.88654 3.72759 9.88215 4.61519 9.88115 4.61519C10.8645 4.06169 11.9077 3.62886 12.9927 3.32568L13.7796 1.28619C13.9332 0.888268 14.3162 0.625977 14.743 0.625977H18.8758C19.3027 0.625977 19.6856 0.888268 19.8392 1.28719L20.6231 3.32668C21.7072 3.62986 22.7504 4.06169 23.7327 4.61519L25.7273 3.72759C26.1183 3.55406 26.575 3.63883 26.8772 3.94102L29.7993 6.86312C30.1005 7.1653 30.1853 7.62107 30.0127 8.01101L29.3904 9.41622C29.16 9.93681 28.5497 10.1722 28.0291 9.9418C27.5075 9.71142 27.2721 9.10107 27.5025 8.58047L27.8386 7.82252L25.9188 5.90271L24.0858 6.71751C23.7746 6.85614 23.4146 6.8322 23.1254 6.65269C22.0363 5.9825 20.8525 5.49182 19.6109 5.19662C19.2797 5.11783 19.0085 4.88048 18.8858 4.56234L18.1668 2.6904H15.4511L14.7281 4.56433C14.6054 4.88147 14.3341 5.11783 14.003 5.19662C12.7614 5.49182 11.5776 5.9825 10.4895 6.65269C10.1993 6.8322 9.83927 6.85614 9.52811 6.71751L7.69606 5.90271L5.77625 7.82153L6.59105 9.65457C6.72967 9.96573 6.70574 10.3258 6.52722 10.615C5.85603 11.704 5.36536 12.8888 5.06617 14.1355C4.98638 14.4656 4.75002 14.7358 4.43288 14.8585L2.56393 15.5776V18.2932L4.43288 19.0123C4.75002 19.1339 4.98638 19.4042 5.06617 19.7343C5.36536 20.976 5.85504 22.1648 6.52622 23.2498C6.70574 23.54 6.72967 23.9001 6.59105 24.2122L5.77625 26.0443L7.69606 27.9641L9.5301 27.1523C9.84026 27.0146 10.1973 27.0386 10.4875 27.2161C10.7378 27.3697 10.9931 27.5143 11.2534 27.6489ZM22.7753 11.2453C23.1682 11.6582 23.1533 12.3114 22.7404 12.7053C22.3285 13.0983 21.6743 13.0833 21.2813 12.6714C20.1554 11.4916 18.5667 10.7566 16.8074 10.7566C13.3947 10.7566 10.6301 13.5201 10.6301 16.9329C10.6301 18.4558 11.1806 19.85 12.0922 20.9271C12.4612 21.3619 12.4063 22.0142 11.9715 22.3822C11.5377 22.7502 10.8854 22.6963 10.5174 22.2615C9.29972 20.8244 8.56571 18.9644 8.56571 16.9329C8.56571 12.3792 12.2537 8.69217 16.8074 8.69217C19.1541 8.69217 21.2734 9.67252 22.7753 11.2453ZM32.9039 9.43417L51.5276 17.4176C51.9076 17.5801 52.1529 17.9531 52.1529 18.366V33.4193C52.1529 44.3977 44.1645 53.882 33.3547 55.7649L32.6775 55.8856C32.5589 55.9066 32.4362 55.9066 32.3165 55.8856L31.6403 55.7649C20.8355 53.882 12.8461 44.3977 12.8461 33.4193V18.366C12.8461 17.9531 13.0915 17.5801 13.4714 17.4176L32.0901 9.43417C32.3504 9.32247 32.6446 9.32247 32.9039 9.43417ZM32.497 11.5056L14.9106 19.0462V33.4193C14.9106 43.3994 22.1739 52.0211 31.9974 53.7314C31.9984 53.7314 31.9994 53.7324 32.0004 53.7324L32.497 53.8202L32.9947 53.7324C32.9957 53.7324 32.9967 53.7314 32.9977 53.7314C42.8251 52.0211 50.0885 43.3994 50.0885 33.4193V19.0462L32.497 11.5056ZM32.9039 15.2504L46.178 20.9391C46.558 21.1016 46.8043 21.4746 46.8043 21.8875V33.4193C46.8043 41.7139 40.8135 48.9085 32.6905 50.4533C32.5628 50.4782 32.4322 50.4782 32.3045 50.4533C24.1855 48.9085 18.1947 41.7139 18.1947 33.4193V21.8875C18.1947 21.4746 18.441 21.1016 18.821 20.9391L32.0911 15.2504C32.3504 15.1397 32.6446 15.1397 32.9039 15.2504ZM32.497 17.3228L20.2591 22.5677V33.4193C20.2591 40.6608 25.4431 46.9498 32.498 48.3879C39.5559 46.9498 44.7399 40.6608 44.7399 33.4193V22.5687L32.497 17.3228ZM32.5 42.3661C27.1385 42.3661 22.7593 37.993 22.7593 32.6255C22.7593 27.265 27.1385 22.8858 32.5 22.8858C37.8675 22.8858 42.2397 27.265 42.2397 32.6255C42.2397 37.993 37.8675 42.3661 32.5 42.3661ZM32.5 40.3007C36.7296 40.3007 40.1753 36.855 40.1753 32.6255C40.1753 28.4009 36.7296 24.9502 32.5 24.9502C28.2754 24.9502 24.8238 28.4009 24.8238 32.6255C24.8238 36.855 28.2754 40.3007 32.5 40.3007ZM27.679 33.6018C27.2761 33.1989 27.2761 32.5447 27.679 32.1418C28.082 31.7389 28.7362 31.7389 29.1391 32.1418L30.8315 33.8342L35.9028 29.2336C36.3247 28.8507 36.9779 28.8826 37.3609 29.3045C37.7438 29.7263 37.7119 30.3796 37.2901 30.7625L31.4897 36.0233C31.0828 36.3933 30.4565 36.3783 30.0666 35.9894L27.679 33.6018Z" fill="black"/>
</g>
</g>
</g>
</g>
</svg>
